# xmcd
#
# Track frame offsets:
#	150
#	16042
#	30272
#	42500
#	56782
#	70842
#	82380
#	97825
#	110520
#	125037
#	136240
#	152747
#	162992
#	174672
#
# Disc length: 2496 seconds
#
# Revision: 1
# Processed by: cddbd v1.5.1PL0 Copyright (c) Steve Scherf et al.
# Submitted via: EasyCDDAExtractor 6.2.0.3
#
DISCID=b809be0e
DTITLE=Various Artist - Bis Sertanejo 2cd
DYEAR=1900
DGENRE=Sertanejo
TTITLE0=Silveira e Silverinha - Berrante de ouro fino
TTITLE1=Onda Malvada
TTITLE2=Coracao da Patria
TTITLE3=Moreninha
TTITLE4=Linda Cigana
TTITLE5=Adeus Minas Gerais
TTITLE6=Folia de Reis
TTITLE7=Quero Beijar-te
TTITLE8=Berrante de Madalena
TTITLE9=Doi Coracao
TTITLE10=Duas Almas
TTITLE11=Boiadeiro Famoso
TTITLE12=Pode Chorar
TTITLE13=India do Araguaia
EXTD=
EXTT0=
EXTT1=
EXTT2=
EXTT3=
EXTT4=
EXTT5=
EXTT6=
EXTT7=
EXTT8=
EXTT9=
EXTT10=
EXTT11=
EXTT12=
EXTT13=
PLAYORDER=
